{"title":"Battleship 2012 CAM READNFO XViD - INSPiRAL","uid":7193897,"size":1532069100,"categoryP":"video","categoryS":"movies","magnet":"?xt=urn:btih:a8a5b7292bcfa5f86d2949335dfbce58c14ab4b8&amp;dn=Battleship+2012+CAM+READNFO+XViD+-+INSPiRAL&amp;tr=udp%3A%2F%2Ftracker.openbittorrent.com%3A80&amp;tr=udp%3A%2F%2Fopen.demonii.com%3A1337&amp;tr=udp%3A%2F%2Ftracker.coppersurfer.tk%3A6969&amp;tr=udp%3A%2F%2Fexodus.desync.com%3A6969","seeders":0,"leechers":0,"uploader":"john10077","files":-1,"time":1334730411,"description":"Battleship 2012 CAM READNFO XViD - INSPiRAL\n\n\n\nIMDB:\n &lt;a href=&quot;\nhttp://www.imdb.com/title/tt1440129/&quot; rel=&quot;nofollow&quot; target=&quot;_NEW&quot;&gt;\nhttp://www.imdb.com/title/tt1440129/&lt;/a&gt;\n\n\n\nSTATS:\n\n\n\nVideo\n\nID                               : 0\n\nFormat                           : MPEG-4 Visual\n\nFormat profile                   : Advanced Simple@L5\n\nFormat settings, BVOP            : 2\n\nFormat settings, QPel            : No\n\nFormat settings, GMC             : No warppoints\n\nFormat settings, Matrix          : Default (MPEG)\n\nMuxing mode                      : Packed bitstream\n\nCodec ID                         : XVID\n\nCodec ID/Hint                    : XviD\n\nDuration                         : 1h 57mn\n\nBit rate                         : 1 597 Kbps\n\nWidth                            : 640 pixels\n\nHeight                           : 272 pixels\n\nDisplay aspect ratio             : 2.35:1\n\nFrame rate                       : 25.000 fps\n\nColor space                      : YUV\n\nChroma subsampling               : 4:2:0\n\nBit depth                        : 8 bits\n\nScan type                        : Progressive\n\nCompression mode                 : Lossy\n\nBits/(Pixel*Frame)               : 0.367\n\nStream size                      : 1.31 GiB (92%)\n\nWriting library                  : XviD 64\n\n\n\nAudio\n\nID                               : 1\n\nFormat                           : MPEG Audio\n\nFormat version                   : Version 1\n\nFormat profile                   : Layer 3\n\nMode                             : Joint stereo\n\nMode extension                   : MS Stereo\n\nCodec ID                         : 55\n\nCodec ID/Hint                    : MP3\n\nDuration                         : 1h 57mn\n\nBit rate mode                    : Constant\n\nBit rate                         : 128 Kbps\n\nChannel(s)                       : 2 channels\n\nSampling rate                    : 44.1 KHz\n\nCompression mode                 : Lossy\n\nStream size                      : 108 MiB (7%)\n\nAlignment                        : Split accross interleaves\n\nInterleave, duration             : 40 ms (1.00 video frame)\n\nInterleave, preload duration     : 500 ms","torrent":{"xt":"urn:btih:a8a5b7292bcfa5f86d2949335dfbce58c14ab4b8","amp;dn":"Battleship+2012+CAM+READNFO+XViD+-+INSPiRAL","amp;tr":["udp%3A%2F%2Ftracker.openbittorrent.com%3A80","udp%3A%2F%2Fopen.demonii.com%3A1337","udp%3A%2F%2Ftracker.coppersurfer.tk%3A6969","udp%3A%2F%2Fexodus.desync.com%3A6969"],"infoHash":"a8a5b7292bcfa5f86d2949335dfbce58c14ab4b8","infoHashBuffer":{"type":"Buffer","data":[168,165,183,41,43,207,165,248,109,41,73,51,93,251,206,88,193,74,180,184]},"announce":[],"urlList":[]}}